<svg width="240" height="240" viewBox="0 0 240 240" fill="none" xmlns="http://www.w3.org/2000/svg">
<g clip-path="url(#clip0_84_1075)">
<path d="M120 130.909C186.274 130.909 240 126.025 240 120C240 113.975 186.274 109.091 120 109.091C53.7258 109.091 0 113.975 0 120C0 126.025 53.7258 130.909 120 130.909Z" fill="#6AEC01"/>
<path d="M108.958 126.15C142.095 183.545 173.406 227.506 178.892 224.338C184.379 221.17 161.963 172.075 128.826 114.68C95.689 57.2845 64.3785 13.3244 58.8922 16.4919C53.4059 19.6594 75.8213 68.7551 108.958 126.15Z" fill="#6AEC01"/>
<path d="M129.282 125.557C162.419 68.1615 184.835 19.0658 179.348 15.8982C173.862 12.7307 142.551 56.6909 109.414 114.086C76.2773 171.481 53.8619 220.577 59.3482 223.744C64.8345 226.912 96.145 182.952 129.282 125.557Z" fill="#6AEC01"/>
<path d="M115.15 129.848C172.545 162.985 221.64 185.4 224.808 179.914C227.975 174.428 184.015 143.117 126.62 109.98C69.225 76.8431 20.1293 54.4278 16.9618 59.9141C13.7943 65.4004 57.7544 96.7108 115.15 129.848Z" fill="#6AEC01"/>
<path d="M109.091 120C109.091 186.274 113.975 240 120 240C126.025 240 130.909 186.274 130.909 120C130.909 53.7258 126.025 0 120 0C113.975 0 109.091 53.7258 109.091 120Z" fill="#6AEC01"/>
<path d="M125.984 129.641C183.379 96.5043 227.339 65.1939 224.171 59.7076C221.004 54.2213 171.908 76.6367 114.513 109.774C57.1178 142.911 13.1576 174.221 16.3251 179.708C19.4927 185.194 68.5884 162.779 125.984 129.641Z" fill="#6AEC01"/>
</g>
<defs>
<clipPath id="clip0_84_1075">
<rect width="240" height="240" fill="white"/>
</clipPath>
</defs>
</svg>
